{
	"asset":{
		"generator":"Khronos glTF Blender I/O v3.6.28",
		"version":"2.0"
	},
	"scene":0,
	"scenes":[
		{
			"name":"Scene",
			"nodes":[
				0
			]
		}
	],
	"nodes":[
		{
			"mesh":0,
			"name":"Murex_Romosus"
		}
	],
	"meshes":[
		{
			"name":"Murex_Romosus",
			"primitives":[
				{
					"attributes":{
						"POSITION":0
					},
					"indices":1
				}
			]
		}
	],
	"accessors":[
		{
			"bufferView":0,
			"componentType":5126,
			"count":26398,
			"max":[
				95.10733795166016,
				45.086883544921875,
				47.75072479248047
			],
			"min":[
				-58.25434875488281,
				-57.804561614990234,
				-37.90699768066406
			],
			"type":"VEC3"
		},
		{
			"bufferView":1,
			"componentType":5123,
			"count":158376,
			"type":"SCALAR"
		}
	],
	"bufferViews":[
		{
			"buffer":0,
			"byteLength":316776,
			"byteOffset":0,
			"target":34962
		},
		{
			"buffer":0,
			"byteLength":316752,
			"byteOffset":316776,
			"target":34963
		}
	],
	"buffers":[
		{
			"byteLength":633528,
			"uri":"Murex_Romosus.bin"
		}
	]
}
